<svg xmlns="http://www.w3.org/2000/svg" width="11.15" height="24" viewBox="0 0 11.15 24"><defs><style>.a{fill:#333;fill-rule:evenodd;}</style></defs><path class="a" d="M667.938,1263.572v11.6a.3.3,0,0,0,.3.3h4.309a.3.3,0,0,0,.3-.3v-11.792h3.123a.3.3,0,0,0,.3-.277l.3-3.553a.3.3,0,0,0-.3-.328h-3.424v-2.52a1.07,1.07,0,0,1,1.069-1.07h2.408a.3.3,0,0,0,.3-.3v-3.553a.3.3,0,0,0-.3-.3h-4.068a4.323,4.323,0,0,0-4.323,4.323v3.425h-2.154a.3.3,0,0,0-.3.3v3.553a.3.3,0,0,0,.3.3h2.154Z" transform="translate(-665.481 -1251.477)"/></svg>