<svg xmlns="http://www.w3.org/2000/svg" width="25.269" height="24" viewBox="0 0 25.269 24"><g transform="translate(0)"><circle class="a" cx="1.407" cy="1.407" r="1.407" transform="translate(17.961 4.286)"/><path class="a" d="M781.617,1256.362c-3.259,0-5.91,2.921-5.91,6.512s2.651,6.514,5.91,6.514,5.911-2.922,5.911-6.514S784.876,1256.362,781.617,1256.362Zm0,10.684a4.192,4.192,0,1,1,3.786-4.172A4,4,0,0,1,781.617,1267.046Z" transform="translate(-768.874 -1250.874)"/><path class="a" d="M787.2,1274.272H777.108a7.414,7.414,0,0,1-7.589-7.208v-9.583a7.414,7.414,0,0,1,7.589-7.209H787.2a7.416,7.416,0,0,1,7.591,7.209v9.583A7.416,7.416,0,0,1,787.2,1274.272Zm-10.089-21.742a5.093,5.093,0,0,0-5.213,4.951v9.583a5.092,5.092,0,0,0,5.213,4.95H787.2a5.093,5.093,0,0,0,5.214-4.95v-9.583a5.094,5.094,0,0,0-5.214-4.951Z" transform="translate(-769.519 -1250.272)"/></g></svg>