<svg xmlns="http://www.w3.org/2000/svg" width="138" height="30" viewBox="0 0 138 30"><defs><style>.a,.b{fill:#3369bd;}.b{font-size:12px;font-family:ProximaNova-Extrabld, Proxima Nova;}</style></defs><g transform="translate(-30 -49)"><path class="a" d="M23.868,11.82c0-.011,0-.022,0-.033,0-.191,0-.381-.014-.569H19.586A4.6,4.6,0,0,0,15.44,7.175V2.107H12.935v8.7a2.317,2.317,0,0,1,2.088-1.3,2.364,2.364,0,0,1,.418.038,2.31,2.31,0,0,1,1.823,1.676,2.286,2.286,0,0,1,0,1.177,2.316,2.316,0,0,1-4.53-.274,2.347,2.347,0,0,1-.023-.32v-.2l0-.379v-.087L12.677,7.8l-.008,0V7.118H10.163v.5a4.6,4.6,0,0,0-6.575,3.6H.952A10.9,10.9,0,0,1,2.981,5.4L3,5.368l.045-.062.047-.064.021-.028A10.961,10.961,0,0,1,19.687,4.077l.72-.72A11.96,11.96,0,0,0,11.878-.2h-.005V-.209h0A12,12,0,0,0-.111,11.218c-.009.189-.014.378-.014.569s.005.406.015.607H3.6a4.567,4.567,0,0,0,.624,1.743,4.6,4.6,0,0,0,5.936,1.742v1.689a.483.483,0,0,1-.022.128.61.61,0,0,1-.073.146,2.275,2.275,0,0,1-1.993,1.113,2.312,2.312,0,0,1-2.256-1.778H3.512a4.594,4.594,0,0,0,8.416,1.97l0,0a4.576,4.576,0,0,0,.738-2.5v-.7l-.059-.034a4.847,4.847,0,0,1-.69-.493l0,0a4.814,4.814,0,0,1-1.584-2.695,2.249,2.249,0,0,1-.17.306,2.324,2.324,0,0,1-4.122-.5Q6.019,12.462,6,12.4a2.28,2.28,0,0,1-.021-1.177,2.323,2.323,0,0,1,4.185-.71,2.281,2.281,0,0,1,.171.307,2.235,2.235,0,0,1,.131.36l.011.043a2.289,2.289,0,0,1-.008,1.131c0,.015,0,.031.006.046.018.128.041.253.069.377A4.583,4.583,0,0,0,11.587,14.8a4.5,4.5,0,0,0,.33.335l0,0a4.627,4.627,0,0,0,.636.489l.114.07a4.595,4.595,0,0,0,6.9-3.3h3.24a10.861,10.861,0,0,1-10.87,10.326v.072h-.076a10.927,10.927,0,0,1-7.8-3.256l-.72.72A12,12,0,0,0,23.875,11.82Z" transform="translate(30.125 52.209)"/><text class="b" transform="translate(59 60)"><tspan x="0" y="0">GLOBAL BUSINESS</tspan><tspan x="0" y="15">SOLUTION PTE LTD</tspan></text></g></svg>