<svg xmlns="http://www.w3.org/2000/svg" width="20.594" height="21.503" viewBox="0 0 20.594 21.503"><g transform="translate(-199.953 -416.103)"><g transform="translate(211.909 428.968)"><path class="a" d="M213.45,434.258a3.944,3.944,0,1,1,3.945-3.945A3.949,3.949,0,0,1,213.45,434.258Zm0-6.889a2.945,2.945,0,1,0,2.946,2.944A2.949,2.949,0,0,0,213.45,427.369Z" transform="translate(-209.506 -426.37)"/></g><g transform="translate(207.221 422.192)"><rect class="a" width="6.34" height="0.999" transform="matrix(0.847, -0.531, 0.531, 0.847, 0, 3.37)"/></g><g transform="translate(211.871 416.853)"><path class="a" d="M213.421,424.741a3.944,3.944,0,1,1,3.944-3.944A3.949,3.949,0,0,1,213.421,424.741Zm0-6.889a2.946,2.946,0,1,0,2.946,2.946A2.949,2.949,0,0,0,213.421,417.852Z" transform="translate(-209.476 -416.853)"/></g><g transform="translate(200.703 423.516)"><path class="a" d="M204.647,429.977a3.945,3.945,0,1,1,3.945-3.945A3.949,3.949,0,0,1,204.647,429.977Zm0-6.89a2.946,2.946,0,1,0,2.946,2.946A2.95,2.95,0,0,0,204.647,423.086Z" transform="translate(-200.703 -422.087)"/></g><g transform="translate(207.077 428.412)"><rect class="a" width="0.999" height="6.131" transform="matrix(0.464, -0.886, 0.886, 0.464, 0, 0.885)"/></g></g></svg>