<svg xmlns="http://www.w3.org/2000/svg" width="30.701" height="24" viewBox="0 0 30.701 24"><defs><style>.a{fill:#333;}</style></defs><path class="a" d="M740.037,1254.149a13.181,13.181,0,0,1-3.1.841c.5-.08,1.232-.938,1.527-1.286a5.329,5.329,0,0,0,1.03-1.784c.027-.051.047-.115-.006-.154a.189.189,0,0,0-.165.013,16.335,16.335,0,0,1-3.681,1.338.253.253,0,0,1-.254-.064,2.818,2.818,0,0,0-.322-.312,6.469,6.469,0,0,0-4.518-1.456,6.808,6.808,0,0,0-2.594.7,6.617,6.617,0,0,0-2.093,1.624,5.981,5.981,0,0,0-1.251,2.378,6.13,6.13,0,0,0-.065,2.51c.019.14.006.159-.127.14-5.056-.714-9.248-2.433-12.649-6.115-.147-.159-.227-.159-.349.013-1.489,2.119-.766,5.524,1.093,7.2.249.223.5.446.778.649a6.718,6.718,0,0,1-2.441-.649c-.148-.089-.222-.038-.236.121a3.514,3.514,0,0,0,.04.688,6.222,6.222,0,0,0,4,4.911,3.961,3.961,0,0,0,.812.236,7.651,7.651,0,0,1-2.394.07c-.175-.032-.241.051-.175.21,1.053,2.727,3.327,3.538,5.03,4,.228.038.456.038.685.089-.014.02-.027.02-.041.039-.564.818-2.523,1.426-3.435,1.729a12.921,12.921,0,0,1-5.217.634c-.281-.039-.34-.036-.416,0s-.01.109.08.178c.356.223.718.421,1.087.612a17.839,17.839,0,0,0,3.488,1.325c6.267,1.643,13.326.435,18.032-4.005,3.7-3.487,4.991-8.3,4.991-13.111,0-.189.235-.293.374-.392a11.868,11.868,0,0,0,2.454-2.424.71.71,0,0,0,.162-.465v-.025C740.163,1254.072,740.162,1254.095,740.037,1254.149Z" transform="translate(-709.462 -1251.273)"/></svg>